STARTFONT 2.1
COMMENT METAFONT output 1995.04.12:1801
COMMENT fontid=MSAM V2.2
COMMENT codingscheme=TeX math symbols
COMMENT fontfacebyte
COMMENT jobname=msam10
COMMENT mag=0.25
COMMENT mode=cx
COMMENT pixels_per_inch=300
COMMENT blacker=0
COMMENT fillin=0.2
COMMENT o_correction=0.6
COMMENT Checksum 97b3eecd
COMMENT 
COMMENT This file is made by pktobdf using the above specified pk file.
COMMENT 
FONT -metafont-msam10-medium-r-normal--10-100-75-75-P-50-MetaFont-FONTSPECIFIC
SIZE 10 75 75
FONTBOUNDINGBOX 12 21 -1 -8
STARTPROPERTIES 21
FONT_ASCENT 9
FONT_DESCENT 5
FOUNDRY "metafont"
FAMILY_NAME "msam10"
WEIGHT_NAME "medium"
SLANT "r"
SETWIDTH_NAME "normal"
ADD_STYLE_NAME ""
PIXEL_SIZE 10
POINT_SIZE 100
RESOLUTOIN_X 75
RESOLUTOIN_Y 75
SPACING "P"
AVERAGE_WIDTH 50
CHARSET_REGISTRY "MetaFont"
CHARSET_ENCODING "FONTSPECIFIC"
AVG_CAPITAL_WIDTH 9
AVG_LOWERCASE_WIDTH 10
COPYRIGHT "MetaFont (public domain)"
DEVICE_FONT_NAME "msam10"
FULLNAME "msam10"
ENDPROPERTIES
CHARS 128
STARTCHAR Gamma
ENCODING 0
SWIDTH 762 0
DWIDTH 8 0
BBX 5 5 1 0
BITMAP
f8
88
a8
88
f8
ENDCHAR
STARTCHAR Delta
ENCODING 1
SWIDTH 762 0
DWIDTH 8 0
BBX 5 5 1 0
BITMAP
f8
a8
f8
a8
f8
ENDCHAR
STARTCHAR Theta
ENCODING 2
SWIDTH 762 0
DWIDTH 8 0
BBX 5 5 1 0
BITMAP
f8
d8
a8
d8
f8
ENDCHAR
STARTCHAR Lamdba
ENCODING 3
SWIDTH 762 0
DWIDTH 8 0
BBX 5 5 1 0
BITMAP
f8
88
88
88
f8
ENDCHAR
STARTCHAR Xi
ENCODING 4
SWIDTH 762 0
DWIDTH 8 0
BBX 5 5 1 0
BITMAP
f8
f8
f8
f8
f8
ENDCHAR
STARTCHAR Pi
ENCODING 5
SWIDTH 286 0
DWIDTH 3 0
BBX 2 2 0 -1
BITMAP
c0
c0
ENDCHAR
STARTCHAR Sigma
ENCODING 6
SWIDTH 667 0
DWIDTH 7 0
BBX 4 8 1 -1
BITMAP
60
60
90
90
90
60
60
60
ENDCHAR
STARTCHAR Upsilon
ENCODING 7
SWIDTH 667 0
DWIDTH 7 0
BBX 4 8 1 -1
BITMAP
60
60
f0
f0
f0
60
60
60
ENDCHAR
STARTCHAR Phi
ENCODING 8
SWIDTH 762 0
DWIDTH 8 0
BBX 5 7 1 -1
BITMAP
f0
90
88
88
88
88
70
ENDCHAR
STARTCHAR Psi
ENCODING 9
SWIDTH 762 0
DWIDTH 8 0
BBX 5 7 1 -1
BITMAP
78
48
88
88
88
88
70
ENDCHAR
STARTCHAR Omega
ENCODING 10
SWIDTH 953 0
DWIDTH 10 0
BBX 7 7 1 -1
BITMAP
04
fc
00
00
fe
40
40
ENDCHAR
STARTCHAR arrowup
ENCODING 11
SWIDTH 953 0
DWIDTH 10 0
BBX 7 7 1 -1
BITMAP
40
7e
00
00
fe
04
04
ENDCHAR
STARTCHAR arrowdown
ENCODING 12
SWIDTH 762 0
DWIDTH 8 0
BBX 5 5 1 0
BITMAP
f8
88
f8
88
f8
ENDCHAR
STARTCHAR quotesingle
ENCODING 13
SWIDTH 667 0
DWIDTH 7 0
BBX 4 7 1 0
BITMAP
90
90
90
90
90
90
90
ENDCHAR
STARTCHAR exclamdown
ENCODING 14
SWIDTH 858 0
DWIDTH 9 0
BBX 6 7 1 0
BITMAP
a8
a8
a8
ac
a8
a8
a8
ENDCHAR
STARTCHAR questiondown
ENCODING 15
SWIDTH 572 0
DWIDTH 6 0
BBX 3 7 1 0
BITMAP
80
e0
80
80
e0
80
80
ENDCHAR
STARTCHAR dotlessi
ENCODING 16
SWIDTH 953 0
DWIDTH 10 0
BBX 7 3 1 1
BITMAP
14
fe
14
ENDCHAR
STARTCHAR dotlessj
ENCODING 17
SWIDTH 953 0
DWIDTH 10 0
BBX 7 3 1 1
BITMAP
50
fe
50
ENDCHAR
STARTCHAR grave
ENCODING 18
SWIDTH 953 0
DWIDTH 10 0
BBX 7 7 1 -1
BITMAP
40
fe
40
40
40
fe
40
ENDCHAR
STARTCHAR acute
ENCODING 19
SWIDTH 953 0
DWIDTH 10 0
BBX 7 7 1 -1
BITMAP
04
fe
04
04
04
fe
04
ENDCHAR
STARTCHAR caron
ENCODING 20
SWIDTH 858 0
DWIDTH 9 0
BBX 7 9 1 -2
BITMAP
44
ee
44
44
44
44
44
44
44
ENDCHAR
STARTCHAR breve
ENCODING 21
SWIDTH 858 0
DWIDTH 9 0
BBX 7 9 1 -2
BITMAP
44
44
44
44
44
44
44
ee
44
ENDCHAR
STARTCHAR macron
ENCODING 22
SWIDTH 381 0
DWIDTH 4 0
BBX 2 9 1 -2
BITMAP
80
c0
80
80
80
80
80
80
80
ENDCHAR
STARTCHAR ring
ENCODING 23
SWIDTH 381 0
DWIDTH 4 0
BBX 2 9 1 -2
BITMAP
80
80
80
80
80
80
80
c0
80
ENDCHAR
STARTCHAR cedilla
ENCODING 24
SWIDTH 381 0
DWIDTH 4 0
BBX 2 9 0 -2
BITMAP
40
c0
40
40
40
40
40
40
40
ENDCHAR
STARTCHAR germandbls
ENCODING 25
SWIDTH 381 0
DWIDTH 4 0
BBX 2 9 0 -2
BITMAP
40
40
40
40
40
40
40
c0
40
ENDCHAR
STARTCHAR ae
ENCODING 26
SWIDTH 1144 0
DWIDTH 12 0
BBX 9 3 1 1
BITMAP
8100
ff80
8100
ENDCHAR
STARTCHAR oe
ENCODING 27
SWIDTH 1144 0
DWIDTH 12 0
BBX 9 3 1 1
BITMAP
4080
ff80
4080
ENDCHAR
STARTCHAR oslash
ENCODING 28
SWIDTH 953 0
DWIDTH 10 0
BBX 7 7 1 0
BITMAP
40
7e
40
40
04
fe
04
ENDCHAR
STARTCHAR AE
ENCODING 29
SWIDTH 953 0
DWIDTH 10 0
BBX 7 7 1 0
BITMAP
04
fc
04
04
40
fe
40
ENDCHAR
STARTCHAR OE
ENCODING 30
SWIDTH 476 0
DWIDTH 5 0
BBX 2 7 1 0
BITMAP
40
c0
40
40
40
40
40
ENDCHAR
STARTCHAR Oslash
ENCODING 31
SWIDTH 476 0
DWIDTH 5 0
BBX 2 7 1 0
BITMAP
80
c0
80
80
80
80
80
ENDCHAR
STARTCHAR tilde
ENCODING 32
SWIDTH 953 0
DWIDTH 10 0
BBX 8 3 0 1
BITMAP
46
ab
12
ENDCHAR
STARTCHAR exclam
ENCODING 33
SWIDTH 1335 0
DWIDTH 14 0
BBX 11 3 1 1
BITMAP
64c0
db60
4040
ENDCHAR
STARTCHAR quotedblright
ENCODING 34
SWIDTH 953 0
DWIDTH 10 0
BBX 7 6 1 0
BITMAP
0e
0a
4a
fe
44
04
ENDCHAR
STARTCHAR numbersign
ENCODING 35
SWIDTH 953 0
DWIDTH 10 0
BBX 7 6 1 0
BITMAP
e0
a0
a4
fe
24
20
ENDCHAR
STARTCHAR dollar
ENCODING 36
SWIDTH 762 0
DWIDTH 8 0
BBX 5 9 1 0
BITMAP
70
50
70
00
f8
00
00
00
f8
ENDCHAR
STARTCHAR percent
ENCODING 37
SWIDTH 762 0
DWIDTH 8 0
BBX 5 12 1 -4
BITMAP
80
80
40
38
40
80
80
00
00
48
a8
90
ENDCHAR
STARTCHAR ampersand
ENCODING 38
SWIDTH 762 0
DWIDTH 8 0
BBX 5 12 1 -4
BITMAP
80
40
30
08
10
60
80
00
00
48
a8
90
ENDCHAR
STARTCHAR quoteright
ENCODING 39
SWIDTH 762 0
DWIDTH 8 0
BBX 5 13 1 -5
BITMAP
80
60
18
18
60
80
00
48
a8
90
48
a8
90
ENDCHAR
STARTCHAR parenleft
ENCODING 40
SWIDTH 1144 0
DWIDTH 12 0
BBX 9 3 1 1
BITMAP
0100
fe80
0100
ENDCHAR
STARTCHAR parenright
ENCODING 41
SWIDTH 667 0
DWIDTH 7 0
BBX 0 0 0 1
BITMAP
ENDCHAR
STARTCHAR asterisk
ENCODING 42
SWIDTH 667 0
DWIDTH 7 0
BBX 0 0 0 1
BITMAP
ENDCHAR
STARTCHAR plus
ENCODING 43
SWIDTH 762 0
DWIDTH 8 0
BBX 5 11 1 -3
BITMAP
20
20
00
f8
00
00
00
f8
00
20
20
ENDCHAR
STARTCHAR comma
ENCODING 44
SWIDTH 858 0
DWIDTH 9 0
BBX 6 10 1 0
BITMAP
30
30
48
78
00
fc
00
00
00
fc
ENDCHAR
STARTCHAR hyphen
ENCODING 45
SWIDTH 762 0
DWIDTH 8 0
BBX 5 12 1 -4
BITMAP
08
08
10
e0
10
08
08
00
00
48
a8
90
ENDCHAR
STARTCHAR period
ENCODING 46
SWIDTH 762 0
DWIDTH 8 0
BBX 5 12 1 -4
BITMAP
08
10
60
80
40
30
08
00
00
48
a8
90
ENDCHAR
STARTCHAR slash
ENCODING 47
SWIDTH 762 0
DWIDTH 8 0
BBX 5 13 1 -5
BITMAP
08
30
c0
c0
30
08
00
48
a8
90
48
a8
90
ENDCHAR
STARTCHAR 0
ENCODING 48
SWIDTH 762 0
DWIDTH 8 0
BBX 5 10 1 -3
BITMAP
08
10
60
88
10
60
80
40
30
08
ENDCHAR
STARTCHAR 1
ENCODING 49
SWIDTH 762 0
DWIDTH 8 0
BBX 5 10 1 -3
BITMAP
80
40
30
88
40
30
08
10
60
80
ENDCHAR
STARTCHAR 2
ENCODING 50
SWIDTH 762 0
DWIDTH 8 0
BBX 5 9 1 0
BITMAP
10
10
28
c8
10
e0
10
08
08
ENDCHAR
STARTCHAR 3
ENCODING 51
SWIDTH 762 0
DWIDTH 8 0
BBX 5 9 1 0
BITMAP
40
40
a0
98
40
38
40
80
80
ENDCHAR
STARTCHAR 4
ENCODING 52
SWIDTH 762 0
DWIDTH 8 0
BBX 5 9 1 -2
BITMAP
08
08
10
e0
10
c8
28
10
10
ENDCHAR
STARTCHAR 5
ENCODING 53
SWIDTH 762 0
DWIDTH 8 0
BBX 5 12 1 -4
BITMAP
08
10
60
80
40
30
08
00
f8
00
00
f8
ENDCHAR
STARTCHAR 6
ENCODING 54
SWIDTH 762 0
DWIDTH 8 0
BBX 5 10 1 -3
BITMAP
08
10
60
80
40
30
88
40
30
08
ENDCHAR
STARTCHAR 7
ENCODING 55
SWIDTH 762 0
DWIDTH 8 0
BBX 7 10 0 -3
BITMAP
06
18
e0
e0
18
e6
18
06
18
e0
ENDCHAR
STARTCHAR 8
ENCODING 56
SWIDTH 286 0
DWIDTH 3 0
BBX 2 6 0 0
BITMAP
80
80
80
40
40
40
ENDCHAR
STARTCHAR 9
ENCODING 57
SWIDTH 381 0
DWIDTH 4 0
BBX 3 1 1 2
BITMAP
e0
ENDCHAR
STARTCHAR colon
ENCODING 58
SWIDTH 762 0
DWIDTH 8 0
BBX 5 11 1 -3
BITMAP
08
00
00
f8
00
00
00
f8
00
00
80
ENDCHAR
STARTCHAR semicolon
ENCODING 59
SWIDTH 762 0
DWIDTH 8 0
BBX 5 11 1 -3
BITMAP
80
00
00
f8
00
00
00
f8
00
00
08
ENDCHAR
STARTCHAR less
ENCODING 60
SWIDTH 762 0
DWIDTH 8 0
BBX 5 9 1 -2
BITMAP
80
80
40
38
40
98
a0
40
40
ENDCHAR
STARTCHAR equal
ENCODING 61
SWIDTH 762 0
DWIDTH 8 0
BBX 5 12 1 -4
BITMAP
80
40
30
08
10
60
80
00
f8
00
00
f8
ENDCHAR
STARTCHAR greater
ENCODING 62
SWIDTH 762 0
DWIDTH 8 0
BBX 5 10 1 -3
BITMAP
80
40
30
08
10
60
88
10
60
80
ENDCHAR
STARTCHAR question
ENCODING 63
SWIDTH 762 0
DWIDTH 8 0
BBX 5 11 1 -4
BITMAP
80
60
18
18
60
98
60
80
60
10
08
ENDCHAR
STARTCHAR at
ENCODING 64
SWIDTH 762 0
DWIDTH 8 0
BBX 6 7 1 -1
BITMAP
fc
80
80
80
80
80
fc
ENDCHAR
STARTCHAR A
ENCODING 65
SWIDTH 762 0
DWIDTH 8 0
BBX 7 7 0 -1
BITMAP
fe
02
02
02
02
02
7e
ENDCHAR
STARTCHAR B
ENCODING 66
SWIDTH 762 0
DWIDTH 8 0
BBX 5 7 1 -1
BITMAP
80
e0
90
88
90
e0
80
ENDCHAR
STARTCHAR C
ENCODING 67
SWIDTH 762 0
DWIDTH 8 0
BBX 4 7 2 -1
BITMAP
10
30
50
90
50
30
10
ENDCHAR
STARTCHAR D
ENCODING 68
SWIDTH 762 0
DWIDTH 8 0
BBX 5 10 1 -3
BITMAP
80
e0
90
88
90
e0
80
00
00
f8
ENDCHAR
STARTCHAR E
ENCODING 69
SWIDTH 762 0
DWIDTH 8 0
BBX 4 10 2 -3
BITMAP
10
30
50
90
50
30
10
00
00
f0
ENDCHAR
STARTCHAR F
ENCODING 70
SWIDTH 953 0
DWIDTH 10 0
BBX 6 5 2 0
BITMAP
30
fc
30
78
48
ENDCHAR
STARTCHAR G
ENCODING 71
SWIDTH 476 0
DWIDTH 5 0
BBX 4 11 0 -3
BITMAP
60
60
60
60
90
90
90
60
60
60
60
ENDCHAR
STARTCHAR H
ENCODING 72
SWIDTH 667 0
DWIDTH 7 0
BBX 4 7 1 0
BITMAP
f0
f0
f0
60
60
60
60
ENDCHAR
STARTCHAR I
ENCODING 73
SWIDTH 762 0
DWIDTH 8 0
BBX 5 7 1 -1
BITMAP
80
e0
f0
f8
f0
e0
80
ENDCHAR
STARTCHAR J
ENCODING 74
SWIDTH 762 0
DWIDTH 8 0
BBX 4 7 2 -1
BITMAP
10
30
70
f0
70
30
10
ENDCHAR
STARTCHAR K
ENCODING 75
SWIDTH 858 0
DWIDTH 9 0
BBX 4 5 0 0
BITMAP
40
60
f0
60
40
ENDCHAR
STARTCHAR L
ENCODING 76
SWIDTH 953 0
DWIDTH 10 0
BBX 4 5 0 0
BITMAP
20
60
f0
60
20
ENDCHAR
STARTCHAR M
ENCODING 77
SWIDTH 667 0
DWIDTH 7 0
BBX 4 6 1 0
BITMAP
60
60
60
60
90
f0
ENDCHAR
STARTCHAR N
ENCODING 78
SWIDTH 667 0
DWIDTH 7 0
BBX 4 6 1 0
BITMAP
60
60
60
60
f0
f0
ENDCHAR
STARTCHAR O
ENCODING 79
SWIDTH 667 0
DWIDTH 7 0
BBX 4 7 1 0
BITMAP
f0
90
90
60
60
60
60
ENDCHAR
STARTCHAR P
ENCODING 80
SWIDTH 762 0
DWIDTH 8 0
BBX 5 5 1 0
BITMAP
f8
00
00
00
f8
ENDCHAR
STARTCHAR Q
ENCODING 81
SWIDTH 762 0
DWIDTH 8 0
BBX 5 17 1 -8
BITMAP
18
20
c0
c0
20
18
00
00
f0
00
00
80
60
10
10
60
80
ENDCHAR
STARTCHAR R
ENCODING 82
SWIDTH 762 0
DWIDTH 8 0
BBX 4 17 1 -8
BITMAP
80
60
10
10
60
80
00
00
f0
00
00
10
20
40
c0
20
10
ENDCHAR
STARTCHAR S
ENCODING 83
SWIDTH 762 0
DWIDTH 8 0
BBX 5 20 1 -7
BITMAP
08
30
c0
40
30
08
00
00
f8
00
00
f8
00
00
80
60
10
18
60
80
ENDCHAR
STARTCHAR T
ENCODING 84
SWIDTH 762 0
DWIDTH 8 0
BBX 5 20 1 -7
BITMAP
80
60
18
10
60
80
00
00
f8
00
00
f8
00
00
08
30
40
c0
30
08
ENDCHAR
STARTCHAR U
ENCODING 85
SWIDTH 762 0
DWIDTH 8 0
BBX 7 7 0 0
BITMAP
ee
7c
28
10
7c
10
38
ENDCHAR
STARTCHAR V
ENCODING 86
SWIDTH 953 0
DWIDTH 10 0
BBX 7 9 1 -2
BITMAP
10
f0
18
0c
fe
0c
18
f0
10
ENDCHAR
STARTCHAR W
ENCODING 87
SWIDTH 953 0
DWIDTH 10 0
BBX 6 9 2 -2
BITMAP
20
3c
60
c0
fc
c0
60
3c
20
ENDCHAR
STARTCHAR X
ENCODING 88
SWIDTH 858 0
DWIDTH 9 0
BBX 6 7 1 0
BITMAP
0c
08
10
20
a0
60
60
ENDCHAR
STARTCHAR Y
ENCODING 89
SWIDTH 572 0
DWIDTH 6 0
BBX 3 7 1 0
BITMAP
a0
60
60
00
00
00
e0
ENDCHAR
STARTCHAR Z
ENCODING 90
SWIDTH 572 0
DWIDTH 6 0
BBX 3 7 1 0
BITMAP
e0
00
00
20
60
60
a0
ENDCHAR
STARTCHAR bracketleft
ENCODING 91
SWIDTH 572 0
DWIDTH 6 0
BBX 3 11 1 -2
BITMAP
e0
00
00
e0
00
00
00
60
60
a0
a0
ENDCHAR
STARTCHAR leftdblquote
ENCODING 92
SWIDTH 667 0
DWIDTH 7 0
BBX 4 7 1 0
BITMAP
10
10
20
20
40
40
f0
ENDCHAR
STARTCHAR bracketright
ENCODING 93
SWIDTH 667 0
DWIDTH 7 0
BBX 4 7 1 0
BITMAP
10
20
20
40
60
90
f0
ENDCHAR
STARTCHAR circumflex
ENCODING 94
SWIDTH 667 0
DWIDTH 7 0
BBX 6 7 1 -1
BITMAP
10
20
40
84
40
20
10
ENDCHAR
STARTCHAR dotaccent
ENCODING 95
SWIDTH 762 0
DWIDTH 8 0
BBX 5 3 1 1
BITMAP
f8
b0
f8
ENDCHAR
STARTCHAR leftquote
ENCODING 96
SWIDTH 762 0
DWIDTH 8 0
BBX 5 2 1 2
BITMAP
88
70
ENDCHAR
STARTCHAR a
ENCODING 97
SWIDTH 762 0
DWIDTH 8 0
BBX 5 2 1 2
BITMAP
70
88
ENDCHAR
STARTCHAR b
ENCODING 98
SWIDTH 762 0
DWIDTH 8 0
BBX 5 7 1 -1
BITMAP
78
80
b8
a0
b8
80
78
ENDCHAR
STARTCHAR c
ENCODING 99
SWIDTH 762 0
DWIDTH 8 0
BBX 5 7 1 -1
BITMAP
f0
08
e8
28
e8
08
f0
ENDCHAR
STARTCHAR d
ENCODING 100
SWIDTH 667 0
DWIDTH 7 0
BBX 4 7 1 0
BITMAP
f0
f0
f0
f0
f0
90
60
ENDCHAR
STARTCHAR e
ENCODING 101
SWIDTH 667 0
DWIDTH 7 0
BBX 4 7 1 0
BITMAP
60
90
f0
f0
f0
f0
f0
ENDCHAR
STARTCHAR f
ENCODING 102
SWIDTH 762 0
DWIDTH 8 0
BBX 5 6 1 0
BITMAP
20
20
20
20
50
88
ENDCHAR
STARTCHAR g
ENCODING 103
SWIDTH 762 0
DWIDTH 8 0
BBX 5 6 1 0
BITMAP
88
50
20
20
20
20
ENDCHAR
STARTCHAR h
ENCODING 104
SWIDTH 762 0
DWIDTH 8 0
BBX 5 7 1 0
BITMAP
80
80
40
20
50
88
88
ENDCHAR
STARTCHAR i
ENCODING 105
SWIDTH 762 0
DWIDTH 8 0
BBX 5 7 1 0
BITMAP
08
08
10
20
50
88
88
ENDCHAR
STARTCHAR j
ENCODING 106
SWIDTH 762 0
DWIDTH 8 0
BBX 5 13 1 -5
BITMAP
78
80
80
80
80
80
78
00
00
f8
00
00
f8
ENDCHAR
STARTCHAR k
ENCODING 107
SWIDTH 762 0
DWIDTH 8 0
BBX 5 13 1 -5
BITMAP
f0
08
08
08
08
08
f0
00
00
f8
00
00
f8
ENDCHAR
STARTCHAR l
ENCODING 108
SWIDTH 762 0
DWIDTH 8 0
BBX 5 5 1 0
BITMAP
f8
00
00
00
f8
ENDCHAR
STARTCHAR m
ENCODING 109
SWIDTH 762 0
DWIDTH 8 0
BBX 5 5 1 0
BITMAP
f8
00
00
00
f8
ENDCHAR
STARTCHAR n
ENCODING 110
SWIDTH 1335 0
DWIDTH 14 0
BBX 11 7 1 -1
BITMAP
1b60
2480
4900
9200
4900
2480
1b60
ENDCHAR
STARTCHAR o
ENCODING 111
SWIDTH 1335 0
DWIDTH 14 0
BBX 11 7 1 -1
BITMAP
d200
2d00
1ac0
0520
1ac0
2d00
d200
ENDCHAR
STARTCHAR p
ENCODING 112
SWIDTH 476 0
DWIDTH 5 0
BBX 2 2 1 5
BITMAP
c0
80
ENDCHAR
STARTCHAR q
ENCODING 113
SWIDTH 476 0
DWIDTH 5 0
BBX 2 2 1 5
BITMAP
c0
40
ENDCHAR
STARTCHAR r
ENCODING 114
SWIDTH 953 0
DWIDTH 10 0
BBX 9 9 0 -2
BITMAP
3e00
4100
bc80
9480
9c80
9480
be80
4100
3e00
ENDCHAR
STARTCHAR s
ENCODING 115
SWIDTH 858 0
DWIDTH 9 0
BBX 10 9 -1 -2
BITMAP
3f00
4080
4c80
9040
8c40
8240
5c80
4080
3f00
ENDCHAR
STARTCHAR t
ENCODING 116
SWIDTH 667 0
DWIDTH 7 0
BBX 4 8 1 0
BITMAP
20
20
20
60
b0
b0
b0
b0
ENDCHAR
STARTCHAR u
ENCODING 117
SWIDTH 762 0
DWIDTH 8 0
BBX 5 9 1 0
BITMAP
20
70
70
00
20
20
f8
20
20
ENDCHAR
STARTCHAR v
ENCODING 118
SWIDTH 762 0
DWIDTH 8 0
BBX 5 3 1 1
BITMAP
90
a8
48
ENDCHAR
STARTCHAR w
ENCODING 119
SWIDTH 762 0
DWIDTH 8 0
BBX 5 6 1 -1
BITMAP
90
a8
48
00
00
f8
ENDCHAR
STARTCHAR x
ENCODING 120
SWIDTH 476 0
DWIDTH 5 0
BBX 2 2 1 0
BITMAP
80
c0
ENDCHAR
STARTCHAR y
ENCODING 121
SWIDTH 476 0
DWIDTH 5 0
BBX 2 2 1 0
BITMAP
40
c0
ENDCHAR
STARTCHAR z
ENCODING 122
SWIDTH 858 0
DWIDTH 9 0
BBX 8 7 0 0
BITMAP
3c
18
db
ff
db
18
3c
ENDCHAR
STARTCHAR endash
ENCODING 123
SWIDTH 476 0
DWIDTH 5 0
BBX 2 9 1 0
BITMAP
c0
c0
c0
c0
c0
c0
c0
c0
c0
ENDCHAR
STARTCHAR emdash
ENCODING 124
SWIDTH 572 0
DWIDTH 6 0
BBX 3 6 1 -2
BITMAP
e0
e0
60
60
60
40
ENDCHAR
STARTCHAR quotedbl
ENCODING 125
SWIDTH 762 0
DWIDTH 8 0
BBX 5 7 1 -1
BITMAP
70
88
88
88
88
88
70
ENDCHAR
STARTCHAR hungarumlaut
ENCODING 126
SWIDTH 762 0
DWIDTH 8 0
BBX 7 7 0 -1
BITMAP
38
54
ba
92
ba
44
38
ENDCHAR
STARTCHAR dieresis
ENCODING 127
SWIDTH 762 0
DWIDTH 8 0
BBX 5 7 1 -1
BITMAP
70
88
88
a8
88
88
70
ENDCHAR
ENDFONT
